<svg id="Group_161616" data-name="Group 161616" xmlns="http://www.w3.org/2000/svg" width="27.425" height="31.565" viewBox="0 0 27.425 31.565">
  <path id="Path_37561" data-name="Path 37561" d="M14.692,18.134a8.442,8.442,0,1,1,8.442-8.442A8.453,8.453,0,0,1,14.692,18.134Zm0-14.682a6.24,6.24,0,1,0,6.24,6.24A6.253,6.253,0,0,0,14.692,3.452Z" transform="translate(-0.98 -1.25)" fill="#537d3d"/>
  <path id="Path_37562" data-name="Path 37562" d="M28.984,26.729a1.109,1.109,0,0,1-1.1-1.1c0-5.065-5.168-9.176-11.51-9.176s-11.51,4.111-11.51,9.176a1.1,1.1,0,0,1-2.2,0c0-6.269,6.152-11.378,13.713-11.378s13.712,5.109,13.712,11.378A1.109,1.109,0,0,1,28.984,26.729Z" transform="translate(-2.66 4.836)" fill="#537d3d"/>
</svg>
