<svg xmlns="http://www.w3.org/2000/svg" width="22.195" height="21.021" viewBox="0 0 22.195 21.021">
  <g id="Group_160279" data-name="Group 160279" transform="translate(-1.25 -1.812)">
    <path id="Path_37563" data-name="Path 37563" d="M12.118,15.985a3.868,3.868,0,1,1,3.868-3.868A3.869,3.869,0,0,1,12.118,15.985Zm0-6.188a2.321,2.321,0,1,0,2.321,2.321A2.324,2.324,0,0,0,12.118,9.8Z" transform="translate(0.22 0.202)" fill="#f9fafc"/>
    <path id="Path_37564" data-name="Path 37564" d="M15.648,22.829a2.8,2.8,0,0,1-.65-.083A2.533,2.533,0,0,1,13.482,21.6l-.124-.206c-.609-1.052-1.444-1.052-2.052,0l-.113.2a2.473,2.473,0,0,1-1.516,1.155,2.415,2.415,0,0,1-1.887-.258L6.015,21.468A2.736,2.736,0,0,1,5,17.734a1.38,1.38,0,0,0,.206-1.3,1.375,1.375,0,0,0-1.227-.474A2.738,2.738,0,0,1,1.25,13.227V11.412A2.738,2.738,0,0,1,3.983,8.679,1.375,1.375,0,0,0,5.21,8.2,1.352,1.352,0,0,0,5,6.9a2.745,2.745,0,0,1-.268-2.073A2.661,2.661,0,0,1,6.015,3.171L7.8,2.15a2.5,2.5,0,0,1,3.4.9l.124.206c.609,1.052,1.444,1.052,2.052,0l.113-.2a2.49,2.49,0,0,1,3.414-.9L18.68,3.182a2.736,2.736,0,0,1,1.011,3.734,1.38,1.38,0,0,0-.206,1.3,1.375,1.375,0,0,0,1.227.474,2.738,2.738,0,0,1,2.733,2.733v1.815a2.738,2.738,0,0,1-2.733,2.733,1.375,1.375,0,0,0-1.227.474,1.352,1.352,0,0,0,.206,1.3,2.7,2.7,0,0,1,.268,2.073,2.661,2.661,0,0,1-1.279,1.661L16.9,22.5A2.567,2.567,0,0,1,15.648,22.829Zm-3.311-3.816a2.81,2.81,0,0,1,2.362,1.6l.113.2a.946.946,0,0,0,1.279.34l1.784-1.031a1.193,1.193,0,0,0,.557-.722,1.179,1.179,0,0,0-.113-.9,2.832,2.832,0,0,1-.206-2.847A2.818,2.818,0,0,1,20.681,14.4a1.18,1.18,0,0,0,1.186-1.186V11.4a1.186,1.186,0,0,0-1.186-1.186,2.818,2.818,0,0,1-2.568-1.248,2.832,2.832,0,0,1,.206-2.847,1.179,1.179,0,0,0,.113-.9,1.206,1.206,0,0,0-.547-.722L16.1,3.481a.949.949,0,0,0-1.3.34l-.113.2a2.81,2.81,0,0,1-2.362,1.6,2.81,2.81,0,0,1-2.362-1.6l-.113-.206a.947.947,0,0,0-1.279-.33L6.788,4.512a1.193,1.193,0,0,0-.557.722,1.179,1.179,0,0,0,.113.9,2.832,2.832,0,0,1,.206,2.847,2.818,2.818,0,0,1-2.568,1.248A1.18,1.18,0,0,0,2.8,11.412v1.815a1.186,1.186,0,0,0,1.186,1.186,2.818,2.818,0,0,1,2.568,1.248,2.832,2.832,0,0,1-.206,2.847,1.179,1.179,0,0,0-.113.9,1.206,1.206,0,0,0,.547.722l1.784,1.021a.912.912,0,0,0,.712.1.978.978,0,0,0,.588-.443l.113-.2A2.831,2.831,0,0,1,12.337,19.013Z" transform="translate(0 0)" fill="#f9fafc"/>
  </g>
</svg>
