<svg xmlns="http://www.w3.org/2000/svg" width="20.264" height="20.264" viewBox="0 0 20.264 20.264">
  <g id="Group_160836" data-name="Group 160836" transform="translate(-1.25 -1.25)">
    <path id="Path_37995" data-name="Path 37995" d="M20.807,21.514H4.784A3.536,3.536,0,0,1,1.25,17.98V1.957a.707.707,0,0,1,1.414,0V17.98A2.124,2.124,0,0,0,4.784,20.1H20.807a.707.707,0,0,1,0,1.414Z" fill="#fff"/>
    <path id="Path_37996" data-name="Path 37996" d="M4.957,17.089a.707.707,0,0,1-.537-1.169l4.326-5.052a2.608,2.608,0,0,1,1.866-.9,2.635,2.635,0,0,1,1.932.754l.9.9a1.216,1.216,0,0,0,.877.349,1.152,1.152,0,0,0,.848-.415L19.49,6.5a.708.708,0,1,1,1.074.924l-4.326,5.052a2.608,2.608,0,0,1-1.866.9,2.635,2.635,0,0,1-1.932-.754l-.886-.9a1.179,1.179,0,0,0-.877-.349,1.152,1.152,0,0,0-.848.415L5.5,16.844A.753.753,0,0,1,4.957,17.089Z" transform="translate(-0.172 -0.287)" fill="#fff"/>
  </g>
</svg>
