<svg id="Group_160277" data-name="Group 160277" xmlns="http://www.w3.org/2000/svg" width="22.563" height="22.564" viewBox="0 0 22.563 22.564">
  <path id="Path_37531" data-name="Path 37531" d="M10.449,10.705A2.256,2.256,0,1,0,8.192,8.449,2.256,2.256,0,0,0,10.449,10.705Zm0,1.692A3.949,3.949,0,1,0,6.5,8.449,3.949,3.949,0,0,0,10.449,12.4Z" transform="translate(0.833 0.577)" fill="#f9fafc" fill-rule="evenodd"/>
  <path id="Path_37532" data-name="Path 37532" d="M10.129,22.506a11.425,11.425,0,0,0,1.153.058,11.316,11.316,0,1,0-1.153-.058Zm7.333-3.891a9.549,9.549,0,0,1-6,2.255l-.182,0h-.145A9.55,9.55,0,0,1,5.1,18.615a9.591,9.591,0,0,1,12.36,0Zm1.2-1.2a11.283,11.283,0,0,0-14.751,0,9.59,9.59,0,1,1,14.751,0Z" fill="#f9fafc" fill-rule="evenodd"/>
</svg>
