<svg xmlns="http://www.w3.org/2000/svg" width="20.681" height="22.132" viewBox="0 0 20.681 22.132">
  <g id="Group_160354" data-name="Group 160354" transform="translate(-2.66 -1.25)">
    <path id="Path_37538" data-name="Path 37538" d="M12.169,13.088a5.919,5.919,0,1,1,5.919-5.919A5.927,5.927,0,0,1,12.169,13.088Zm0-10.294a4.375,4.375,0,1,0,4.375,4.375A4.385,4.385,0,0,0,12.169,2.794Z" transform="translate(0.106)" fill="#f9fafc"/>
    <path id="Path_37539" data-name="Path 37539" d="M15.861,22.995a1.447,1.447,0,0,1-1.029-.412,1.465,1.465,0,0,1-.391-1.266l.2-1.39a2.079,2.079,0,0,1,.525-1.05l3.644-3.644a2.171,2.171,0,0,1,3.377,0A2.421,2.421,0,0,1,23,16.921a2.359,2.359,0,0,1-.813,1.678l-3.644,3.644a2.039,2.039,0,0,1-1.05.525l-1.39.2A.934.934,0,0,1,15.861,22.995Zm4.622-7.031c-.185,0-.35.124-.587.36l-3.644,3.644a.392.392,0,0,0-.082.175l-.185,1.287,1.287-.185a.572.572,0,0,0,.175-.093l3.644-3.644a1.068,1.068,0,0,0,.36-.587.975.975,0,0,0-.36-.6C20.844,16.077,20.658,15.964,20.483,15.964Z" transform="translate(0.346 0.387)" fill="#f9fafc"/>
    <path id="Path_37540" data-name="Path 37540" d="M21.007,19.329A.664.664,0,0,1,20.8,19.3a4.094,4.094,0,0,1-2.821-2.821.769.769,0,1,1,1.482-.412,2.538,2.538,0,0,0,1.75,1.75.771.771,0,0,1-.206,1.513Z" transform="translate(0.45 0.419)" fill="#f9fafc"/>
    <path id="Path_37541" data-name="Path 37541" d="M3.432,23a.778.778,0,0,1-.772-.772c0-4.4,4.313-7.978,9.615-7.978a11.547,11.547,0,0,1,3.274.474.769.769,0,1,1-.443,1.472,9.962,9.962,0,0,0-2.831-.412c-4.447,0-8.071,2.882-8.071,6.434A.78.78,0,0,1,3.432,23Z" transform="translate(0 0.382)" fill="#f9fafc"/>
  </g>
</svg>
