<svg xmlns="http://www.w3.org/2000/svg" width="23.646" height="22.753" viewBox="0 0 23.646 22.753">
  <g id="Group_160485" data-name="Group 160485" transform="translate(0.003)">
    <path id="Path_37646" data-name="Path 37646" d="M1.878,1.766a.375.375,0,0,1,0-.75h9.987V.375a.375.375,0,1,1,.75,0v.641h9.3a.375.375,0,0,1,0,.75h-.864v9.581h.9a.375.375,0,1,1,0,.75H12.667v1.064a.33.33,0,0,1,.046.04l2.3,2.186a.374.374,0,0,1-.516.543L12.673,14.2v1.9a.375.375,0,0,1-.75,0V14.12l-1.9,1.81a.374.374,0,0,1-.516-.543L11.8,13.2a.512.512,0,0,1,.121-.081V12.1H6.83a.375.375,0,1,1,0-.75H20.3V1.766ZM14.845,20.36c-1.672,0-.571.131-.342-1.685.341-2.717,2.923-2.717,3.3,0,.244,1.747,1.293,1.685-.342,1.685h-.652c0,.444-.071.671.391.922.235.127.673.223,1.049.369.571-.489,1.585-.167,1.691-1.062a8.409,8.409,0,0,0-.379-.906.916.916,0,0,1-.042-.918,1.906,1.906,0,0,0,.038-.637c0-1.447,2.536-1.447,2.536,0,0,.183-.042.519.058.664a.925.925,0,0,1-.06.891c-.09.262-.431.758-.4.906.246,1.253,1.953-.089,1.953,2.164H3.863c0-2.291,2.163-1.022,2.328-2.426a9.248,9.248,0,0,0-.425-1.016,1.018,1.018,0,0,1-.046-1.027,2.154,2.154,0,0,0,.044-.714c0-1.622,2.842-1.622,2.842,0,0,.206-.048.583.063.743a1.033,1.033,0,0,1-.067,1c-.1.294-.483.848-.45,1.016.119.606,1.63,1.018,2.157,1.241.3-.152.537-.333.562-.543a6.572,6.572,0,0,0-.3-.723.73.73,0,0,1-.033-.733,1.559,1.559,0,0,0,.031-.508c0-1.154,2.024-1.156,2.024,0a1.171,1.171,0,0,0,.046.529.735.735,0,0,1-.048.71c-.071.21-.344.6-.321.723.148.758.968.327,1.354.856.366-.289,1.093-.367,1.537-.633.406-.242.337-.487.335-.891l-.648,0ZM0,8.991c-.054-1.045.8-1.32,1.97-1.247L3.444,9.385,4.885,7.763l3.573-.019c1.347.154,1.066,1.568,0,1.622H6.12l-.55,3.3-.416,2.149a1.022,1.022,0,0,1-.637.7l-2.032.013a.8.8,0,0,1-.723-.723l-.316-1.78c-.831.081-1.112-.51-1.2-1.36L.008,8.985,0,8.991ZM3.359,3.275a1.81,1.81,0,1,1-1.81,1.81,1.812,1.812,0,0,1,1.81-1.81Zm.065,5.341L2.278,7.355l.335-.267a1.838,1.838,0,0,0,1.481,0l.462.275L3.425,8.616Z" transform="translate(0)" fill="#fff"/>
  </g>
</svg>
