<svg xmlns="http://www.w3.org/2000/svg" width="20.201" height="20.202" viewBox="0 0 20.201 20.202">
  <g id="Group_160333" data-name="Group 160333" transform="translate(0 -0.621)">
    <path id="Path_37527" data-name="Path 37527" d="M10.1,4.268a1.649,1.649,0,0,0,0,2.332l3.164,3.164a1.649,1.649,0,0,0,2.332,0L18.764,6.6a1.649,1.649,0,0,0,0-2.332L15.6,1.1a1.649,1.649,0,0,0-2.332,0Zm4.33-2L11.27,5.434,14.434,8.6,17.6,5.434Z" transform="translate(0.954 0)" fill="#075307" fill-rule="evenodd"/>
    <path id="Path_37528" data-name="Path 37528" d="M0,3.2A2.2,2.2,0,0,1,2.2,1H6.6a2.2,2.2,0,0,1,2.2,2.2V7.6a2.2,2.2,0,0,1-2.2,2.2H2.2A2.2,2.2,0,0,1,0,7.6Zm1.649,0a.55.55,0,0,1,.55-.55H6.6a.55.55,0,0,1,.55.55V7.6a.55.55,0,0,1-.55.55H2.2a.55.55,0,0,1-.55-.55Z" transform="translate(0 0.038)" fill="#075307" fill-rule="evenodd"/>
    <path id="Path_37529" data-name="Path 37529" d="M2.2,11A2.2,2.2,0,0,0,0,13.2v4.4a2.2,2.2,0,0,0,2.2,2.2H6.6a2.2,2.2,0,0,0,2.2-2.2V13.2A2.2,2.2,0,0,0,6.6,11Zm4.946,2.2a.55.55,0,0,0-.55-.55H2.2a.55.55,0,0,0-.55.55v4.4a.55.55,0,0,0,.55.55H6.6a.55.55,0,0,0,.55-.55Z" transform="translate(0 1.029)" fill="#075307" fill-rule="evenodd"/>
    <path id="Path_37530" data-name="Path 37530" d="M12.2,11A2.2,2.2,0,0,0,10,13.2v4.4a2.2,2.2,0,0,0,2.2,2.2h4.4a2.2,2.2,0,0,0,2.2-2.2V13.2A2.2,2.2,0,0,0,16.6,11Zm4.946,2.2a.55.55,0,0,0-.55-.55H12.2a.55.55,0,0,0-.55.55v4.4a.55.55,0,0,0,.55.55h4.4a.55.55,0,0,0,.55-.55Z" transform="translate(0.992 1.029)" fill="#075307" fill-rule="evenodd"/>
  </g>
</svg>
