<svg xmlns="http://www.w3.org/2000/svg" width="24.382" height="19.617" viewBox="0 0 24.382 19.617">
  <path id="Path_37648" data-name="Path 37648" d="M18.392,14.989H15.974a.98.98,0,0,0-.977.977v3.651h4.371V15.966a.98.98,0,0,0-.977-.977ZM12.018,2.594h2.806a.674.674,0,0,1,.672.672v1.76a.674.674,0,0,1-.672.672H13.18l-1.021.877A.113.113,0,0,1,12,6.564a.11.11,0,0,1-.027-.081l.054-.784h-.009a.674.674,0,0,1-.672-.672V3.267a.674.674,0,0,1,.672-.672ZM2.2.058a79,79,0,0,0,9.875.616A81.053,81.053,0,0,0,21.947.058L22.408,0V11.987l-.461-.056a82.215,82.215,0,0,0-9.875-.616,77.98,77.98,0,0,0-9.873.614l-.463.059V0L2.2.058Zm9.875,1.435A79.8,79.8,0,0,1,2.558.931V11.059a78.7,78.7,0,0,1,9.513-.563,82.909,82.909,0,0,1,9.514.564V.93a81.74,81.74,0,0,1-9.514.563ZM6.454,9.641a.247.247,0,0,1,0-.494H17.827a.247.247,0,1,1,0,.494ZM13.125,8.32a.247.247,0,1,1,0-.494h4.7a.247.247,0,1,1,0,.494ZM14.661,7a.247.247,0,0,1,0-.494H17.82a.247.247,0,1,1,0,.494Zm-5.78.472h.075a.123.123,0,0,0,.123-.123v-.2a.123.123,0,0,0-.123-.123H8.512a.123.123,0,0,0-.123.123v.2a.123.123,0,0,0,.123.123h.076l-.146.741h.58l-.14-.741Zm-2.565.741c.058-.748-.089-.716.537-.95a4.79,4.79,0,0,0,.877-.445l.537,1.395ZM9.761,6.755a3.568,3.568,0,0,0,.811.405c.584.194.582.221.579,1.053H9.207l.554-1.458ZM8.1,6.389c.014-.115-.327-.553-.389-.763a.767.767,0,0,1-.035-.772c.058-.089.033-.166.033-.289,0-1.219,2.136-1.219,2.136,0,0,.154-.035.19.048.312a.778.778,0,0,1-.05.75c-.076.221-.433.638-.408.763.022.626-1.338.6-1.334,0ZM13.15,3.421l.871.608a.13.13,0,0,1,.06.11.132.132,0,0,1-.056.107l-.868.6a.127.127,0,0,1-.082.03h0a.131.131,0,0,1-.13-.13V3.526a.13.13,0,0,1,.13-.13.127.127,0,0,1,.077.025ZM10.975,14.989h2.417a.98.98,0,0,1,.977.977v3.651H10V15.966A.98.98,0,0,1,10.975,14.989ZM3.484,12.654H5.9a.98.98,0,0,1,.977.977v.715h-.9a1.615,1.615,0,0,0-1.144.475,1.757,1.757,0,0,0-.147.168,1.633,1.633,0,0,0-.147-.168,1.614,1.614,0,0,0-1.144-.475H2.507v-.715A.98.98,0,0,1,3.484,12.654Zm17.414,0H18.482a.98.98,0,0,0-.977.977v.715h.887a1.615,1.615,0,0,1,1.144.475,1.693,1.693,0,0,1,.155.18,1.638,1.638,0,0,1,.153-.177l0,0a1.617,1.617,0,0,1,1.141-.474h.887v-.715a.98.98,0,0,0-.977-.977Zm-7.416,0H15.9a.98.98,0,0,1,.977.977v.715h-.9a1.615,1.615,0,0,0-1.144.475,1.757,1.757,0,0,0-.147.168,1.633,1.633,0,0,0-.147-.168,1.614,1.614,0,0,0-1.144-.475h-.887v-.715A.98.98,0,0,1,13.482,12.654Zm-2.582,0H8.483a.98.98,0,0,0-.977.977v.715h.887a1.615,1.615,0,0,1,1.144.475,1.7,1.7,0,0,1,.147.168,1.636,1.636,0,0,1,.146-.168,1.616,1.616,0,0,1,1.145-.475h.9v-.715a.98.98,0,0,0-.977-.977ZM8.393,14.989H5.976A.98.98,0,0,0,5,15.966v3.651H9.37V15.966A.98.98,0,0,0,8.393,14.989Zm-7.416,0H3.394a.98.98,0,0,1,.977.977v3.651H0V15.966a.98.98,0,0,1,.977-.977Zm20.011,0h2.417a.98.98,0,0,1,.977.977v3.651H20.011V15.966A.98.98,0,0,1,20.988,14.989Z" fill="#fff" fill-rule="evenodd"/>
</svg>
