<svg xmlns="http://www.w3.org/2000/svg" width="25.704" height="21.115" viewBox="0 0 25.704 21.115">
  <path id="Path_37862" data-name="Path 37862" d="M4.585,0a2.243,2.243,0,0,1,2.17,2.31A2.243,2.243,0,0,1,4.587,4.622,2.243,2.243,0,0,1,2.42,2.309,2.241,2.241,0,0,1,4.585,0ZM3.056,5.064l.77,2.153h.082l.374-1.379L4.073,5.6c-.151-.234-.1-.5.182-.551a1.945,1.945,0,0,1,.3,0,1.643,1.643,0,0,1,.333.013c.259.062.287.33.157.544l-.209.234L5.23,7.217h.08L6,5.064a.958.958,0,0,0,.1.083,1.341,1.341,0,0,1,.567.19.989.989,0,0,1,.628.446L8.95,8.217l1.178.241V3.719H8.454a.416.416,0,0,1,0-.83h7.772V1.678a.39.39,0,0,1,.78,0V2.9h8.27a.416.416,0,0,1,0,.83H23.618V13.995h1.7a.416.416,0,0,1,0,.83H17.061v1.907a.54.54,0,0,0,.054.045l2.431,2.454a.429.429,0,0,1,.131.4.4.4,0,0,1-.276.311.372.372,0,0,1-.386-.117l-1.954-1.981v1.785a.39.39,0,0,1-.78,0V17.776l-2.027,2.055a.368.368,0,0,1-.548-.016.425.425,0,0,1,.015-.582l2.431-2.454h0a.355.355,0,0,1,.13-.087V14.825H8.445a.416.416,0,0,1,0-.83h1.674V10.671L8.18,10.262a1.014,1.014,0,0,1-.649-.424L6.709,8.623v.031l-.067,3.52.837,5.631.316,1.93a1.083,1.083,0,1,1-2.132.361L4.583,13.31l-1.1,6.9a1.074,1.074,0,0,1-2.132-.257l1.211-7.73L2.472,8.045a1.791,1.791,0,0,0-.249.446,2.972,2.972,0,0,0-.209,1.022l-.167,2.434A.926.926,0,1,1,0,11.924c.01-.616.063-1.236.126-1.867A7.036,7.036,0,0,1,.918,6.894a4.021,4.021,0,0,1,.941-1.162A2.475,2.475,0,0,1,2.88,5.214a1.54,1.54,0,0,0,.176-.149Zm7.85,3.471,2.188-2.454a.5.5,0,0,1,.5-.171.533.533,0,0,1,.382.387.576.576,0,0,1-.135.543L11.784,9.147a1.153,1.153,0,0,1,.021,1.109,1.014,1.014,0,0,1-.9.556v3.184h11.94V3.719H10.906Z" transform="translate(0.001 0)" fill="#fff" fill-rule="evenodd"/>
</svg>
