<svg xmlns="http://www.w3.org/2000/svg" width="24.946" height="25.261" viewBox="0 0 24.946 25.261">
  <path id="Path_37861" data-name="Path 37861" d="M16.7,23.09a.4.4,0,0,1,.4-.4h4.981a.4.4,0,0,1,0,.793H17.093A.4.4,0,0,1,16.7,23.09Zm7.88,1.708H17.093a.4.4,0,0,0,0,.793h7.484a.4.4,0,0,0,0-.793Zm-11.989.055a.4.4,0,0,0,.558,0l.847-.855a.4.4,0,0,0-.563-.558l-.57.576-.191-.186a.4.4,0,0,0-.553.567ZM15.2,22.661v2.963a.663.663,0,0,1-.662.662H11.571a.663.663,0,0,1-.662-.662V22.661A.663.663,0,0,1,11.571,22h2.964A.662.662,0,0,1,15.2,22.661Zm-.792.131H11.7v2.7h2.7Zm-1.815-2.947a.4.4,0,0,0,.558,0l.847-.855a.4.4,0,0,0-.563-.558L12.86,19l-.191-.186a.4.4,0,0,0-.553.568ZM15.2,17.651v2.964a.663.663,0,0,1-.662.662H11.571a.663.663,0,0,1-.662-.662V17.651a.663.663,0,0,1,.662-.662h2.964A.663.663,0,0,1,15.2,17.651Zm-.792.131H11.7v2.7h2.7Zm-1.815-2.947a.4.4,0,0,0,.558,0l.847-.855a.4.4,0,1,0-.563-.558l-.57.576-.191-.186a.4.4,0,0,0-.553.568ZM15.2,12.642v2.963a.663.663,0,0,1-.662.662H11.571a.663.663,0,0,1-.662-.662V12.642a.663.663,0,0,1,.662-.662h2.964A.662.662,0,0,1,15.2,12.642Zm-.792.131H11.7v2.7h2.7ZM12.588,9.825a.4.4,0,0,0,.558,0l.847-.855a.4.4,0,0,0-.563-.558l-.57.576L12.669,8.8a.4.4,0,1,0-.553.567ZM15.2,7.633V10.6a.663.663,0,0,1-.662.662H11.571a.663.663,0,0,1-.662-.662V7.633a.663.663,0,0,1,.662-.662h2.964A.663.663,0,0,1,15.2,7.633Zm-.792.131H11.7v2.7h2.7Zm2.69,5.7h4.981a.4.4,0,1,0,0-.793H17.093a.4.4,0,1,0,0,.793Zm0-2.905h7.484a.4.4,0,0,0,0-.793H17.093a.4.4,0,1,0,0,.793Zm0-2.1h4.981a.4.4,0,1,0,0-.793H17.093a.4.4,0,0,0,0,.793Zm10.31,13.2V26.9a2.359,2.359,0,0,1-2.356,2.356H6.915A2.359,2.359,0,0,1,4.559,26.9V25.223a.794.794,0,0,1,.793-.793H8.479V4.791A.794.794,0,0,1,9.272,4H26.611a.794.794,0,0,1,.793.793v9.445a4.325,4.325,0,0,1,0,7.421ZM8.479,26.9V25.223H5.351V26.9a1.564,1.564,0,1,0,3.127,0ZM26.61,22.03a4.324,4.324,0,0,1-4.864-1.448H17.093a.4.4,0,0,1,0-.793h4.169a4.289,4.289,0,0,1-.38-1.312H17.093a.4.4,0,1,1,0-.793h3.765a4.3,4.3,0,0,1,.7-2.113H17.093a.4.4,0,1,1,0-.793H22.23a4.322,4.322,0,0,1,4.38-.917V4.791H9.271V26.9a2.347,2.347,0,0,1-.6,1.564h16.37A1.566,1.566,0,0,0,26.61,26.9Zm2.1-4.084a3.536,3.536,0,1,0-3.536,3.536A3.54,3.54,0,0,0,28.713,17.946Zm-.76-1.148a1.056,1.056,0,0,1-.309.753l-2.269,2.29a1.067,1.067,0,0,1-1.5.013l-1.154-1.125A1.063,1.063,0,0,1,24.207,17.2l.4.389,1.528-1.543h0a1.063,1.063,0,0,1,1.817.747Zm-.792,0a.271.271,0,0,0-.463-.191l-1.8,1.822a.4.4,0,0,1-.558,0l-.68-.663a.271.271,0,0,0-.377.389l1.154,1.125a.272.272,0,0,0,.381,0l2.269-2.291A.271.271,0,0,0,27.16,16.8Z" transform="translate(-4.559 -3.998)" fill="#e3f7b6"/>
</svg>
