<svg xmlns="http://www.w3.org/2000/svg" xmlns:xlink="http://www.w3.org/1999/xlink" width="409.565" height="56.057" viewBox="0 0 409.565 56.057"><defs><linearGradient id="a" x1="0.511" y1="0.063" x2="0.5" y2="1.027" gradientUnits="objectBoundingBox"><stop offset="0" stop-color="#fff"/><stop offset="0.496" stop-color="#d0f382"/><stop offset="1" stop-color="#65ae57"/></linearGradient><linearGradient id="b" x1="0.5" x2="0.5" y2="1" gradientUnits="objectBoundingBox"><stop offset="0" stop-color="#fad961"/><stop offset="1" stop-color="#f76b1c"/></linearGradient></defs><g transform="translate(3623.565 5355)"><g transform="translate(-3623.565 -5355)"><g transform="translate(-0.001 0)"><path d="M.958,27.7c0,14.908,11.88,27.037,26.482,27.037S53.921,42.607,53.921,27.7,42.041.662,27.44.662.958,12.79.958,27.7Z" transform="translate(0.058 0.04)" fill-rule="evenodd" fill="url(#a)"/><path d="M24.253,15.569h0a.309.309,0,0,1-.3-.312L23.978.311a.309.309,0,0,1,.3-.311h0a.309.309,0,0,1,.3.312l-.03,14.945a.309.309,0,0,1-.307.311" transform="translate(1.436 0)" fill="#417505" fill-rule="evenodd"/><path d="M22.018,13.7h0a.309.309,0,0,1-.3-.312L21.742.312a.309.309,0,0,1,.3-.312h0a.309.309,0,0,1,.3.312l-.029,13.072a.309.309,0,0,1-.307.311" transform="translate(1.301 0)" fill="#417505" fill-rule="evenodd"/><path d="M28.4,15.569h0a.309.309,0,0,1-.3-.312L28.128.311A.309.309,0,0,1,28.434,0h0a.309.309,0,0,1,.3.312l-.028,14.945a.309.309,0,0,1-.307.311" transform="translate(1.684 0)" fill="#417505" fill-rule="evenodd"/><path d="M30.319,13.7h0a.309.309,0,0,1-.3-.312L30.044.312a.308.308,0,0,1,.3-.312h0a.309.309,0,0,1,.3.312l-.03,13.072a.309.309,0,0,1-.307.311" transform="translate(1.8 0)" fill="#417505" fill-rule="evenodd"/><path d="M23.232,15.86c-.593-.446-1.19-.888-1.8-1.3a1.981,1.981,0,0,1-.686-.739L20.771.974a.307.307,0,0,0-.253-.3s0-.011,0-.011l-.037,0-.015,0h0a.239.239,0,0,0-.037.008l-.282.024c-.02,4.014-.061,11.161,0,14.814a2.88,2.88,0,0,0,1.394,2.566c.907.543,1.829,1.061,2.823,1.636-.064-.79-.1-1.568-.2-2.339a2.208,2.208,0,0,0-.934-1.51" transform="translate(1.207 0.04)" fill="#417505" fill-rule="evenodd"/><path d="M22.587,19.269c-.831-.523-1.614-1.125-2.477-1.734,0,.493.012.942-.006,1.548a2.674,2.674,0,0,0,1.206,2.431c.979.684,1.989,1.321,2.993,1.984-.028-.418-.088-.967-.081-1.408a2.7,2.7,0,0,0-1.634-2.82" transform="translate(1.22 1.053)" fill="#417505" fill-rule="evenodd"/><path d="M22.587,23.9c-.831-.523-1.614-1.125-2.477-1.734,0,.493.012.942-.006,1.548a2.674,2.674,0,0,0,1.206,2.431c.979.684,1.989,1.321,2.993,1.984-.028-.418-.088-.967-.081-1.408a2.7,2.7,0,0,0-1.634-2.82" transform="translate(1.22 1.331)" fill="#417505" fill-rule="evenodd"/><path d="M22.587,28.2c-.831-.523-1.614-1.125-2.477-1.734,0,.493.012.942-.006,1.548a2.674,2.674,0,0,0,1.206,2.431c.979.684,1.989,1.321,2.993,1.984-.028-.418-.088-.967-.081-1.408a2.7,2.7,0,0,0-1.634-2.82" transform="translate(1.22 1.588)" fill="#417505" fill-rule="evenodd"/><path d="M22.587,32.835c-.831-.523-1.614-1.125-2.477-1.734,0,.493.012.942-.006,1.548a2.674,2.674,0,0,0,1.206,2.431c.979.684,1.989,1.321,2.993,1.984-.028-.418-.088-.967-.081-1.408a2.7,2.7,0,0,0-1.634-2.82" transform="translate(1.22 1.866)" fill="#417505" fill-rule="evenodd"/><path d="M32.639,15.509c.05-2.985.032-8.326.012-12.37l0-2.162a.306.306,0,0,0-.016-.084V.659l-.276.006-.012,0h0l-.014,0-.057,0V.679a.307.307,0,0,0-.234.3l-.028,12.91a2.016,2.016,0,0,1-.658.677c-.616.411-1.212.855-1.8,1.3a2.208,2.208,0,0,0-.935,1.51c-.094.772-.133,1.549-.2,2.339.994-.574,1.916-1.092,2.823-1.636a2.88,2.88,0,0,0,1.394-2.566" transform="translate(1.699 0.042)" fill="#417505" fill-rule="evenodd"/><path d="M32.6,17.534c-.864.609-1.646,1.211-2.477,1.734a2.7,2.7,0,0,0-1.636,2.82c.007.442-.053.991-.081,1.408,1-.663,2.014-1.3,2.992-1.983a2.676,2.676,0,0,0,1.207-2.432c-.018-.606-.007-1.054-.007-1.548" transform="translate(1.709 1.053)" fill="#417505" fill-rule="evenodd"/><path d="M32.6,22.166c-.864.609-1.646,1.211-2.477,1.734a2.7,2.7,0,0,0-1.636,2.82c.007.442-.053.991-.081,1.408,1-.663,2.014-1.3,2.992-1.983a2.676,2.676,0,0,0,1.207-2.432c-.018-.606-.007-1.054-.007-1.548" transform="translate(1.709 1.331)" fill="#417505" fill-rule="evenodd"/><path d="M32.6,26.468c-.864.609-1.646,1.211-2.477,1.734a2.7,2.7,0,0,0-1.636,2.82c.007.442-.053.991-.081,1.408,1-.662,2.014-1.3,2.992-1.983a2.676,2.676,0,0,0,1.207-2.432c-.018-.606-.007-1.054-.007-1.548" transform="translate(1.709 1.589)" fill="#417505" fill-rule="evenodd"/><path d="M32.608,31.1c-.864.609-1.646,1.211-2.477,1.734a2.7,2.7,0,0,0-1.634,2.82c.007.442-.053.991-.081,1.408,1-.663,2.014-1.3,2.992-1.983a2.676,2.676,0,0,0,1.207-2.432c-.018-.606-.007-1.054-.007-1.548" transform="translate(1.705 1.868)" fill="#417505" fill-rule="evenodd"/><path d="M26.58,13.732,26.607,0h-.62L25.97,13.732a5.375,5.375,0,0,1-.814,2.708,3.428,3.428,0,0,0-.179,3.49c.19.387.362.334.639,0,.223-.272.42-.486.649-.813.23.328.426.542.649.813.276.334.449.387.639,0a3.428,3.428,0,0,0-.179-3.49,6.076,6.076,0,0,1-.794-2.708" transform="translate(1.476 0)" fill="#417505" fill-rule="evenodd"/><path d="M26.2,18.861h0v0a.157.157,0,0,0-.095.035,12.7,12.7,0,0,0-.9,1.125,3.2,3.2,0,0,0-.223,3.456c.21.424.423.436.712.052.174-.231.316-.484.474-.731a.04.04,0,0,1,.07,0c.157.247.3.5.474.731.289.385.5.372.712-.052a3.205,3.205,0,0,0-.223-3.456,12.714,12.714,0,0,0-.9-1.125.158.158,0,0,0-.095-.035v0h0" transform="translate(1.479 1.13)" fill="#417505" fill-rule="evenodd"/><path d="M24.984,28.105c.21.424.423.437.712.052.174-.232.316-.485.474-.732a.091.091,0,0,1,.034-.02.092.092,0,0,1,.035.02c.157.247.3.5.474.732.288.385.5.371.712-.052a3.205,3.205,0,0,0-.223-3.456,12.8,12.8,0,0,0-.9-1.125.164.164,0,0,0-.1-.035v0H26.2v0a.162.162,0,0,0-.095.035,12.7,12.7,0,0,0-.9,1.125,3.2,3.2,0,0,0-.223,3.456" transform="translate(1.477 1.412)" fill="#417505" fill-rule="evenodd"/><path d="M24.984,32.737c.21.424.423.437.712.052.174-.232.316-.485.474-.732a.091.091,0,0,1,.034-.02.092.092,0,0,1,.035.02c.157.247.3.5.474.732.288.385.5.371.712-.052A3.205,3.205,0,0,0,27.2,29.28a12.8,12.8,0,0,0-.9-1.125.164.164,0,0,0-.1-.035v0H26.2v0a.162.162,0,0,0-.095.035,12.694,12.694,0,0,0-.9,1.125,3.2,3.2,0,0,0-.223,3.456" transform="translate(1.477 1.69)" fill="#417505" fill-rule="evenodd"/><path d="M26.226,32.755s-1.645,1.54-1.645,3a5.052,5.052,0,0,0,1.386,2.8V49.309h.611V38.521a5.113,5.113,0,0,0,1.27-2.769c0-1.457-1.622-3-1.622-3" transform="translate(1.478 1.966)" fill="#417505" fill-rule="evenodd"/><path d="M13.317,5.229l-.135.1C9.558,7.932-1.949,17.694,2.149,33.963A26.866,26.866,0,0,0,15.692,51.4c5.148,2.8,9.855,3.41,11.456,3.238-.037-1.994-.472-9.683-4.888-15.364-4.79-6.164-6.68-9.986-6.318-12.78a5.229,5.229,0,0,0,.028-1.89c-.909.616-3.876,5.852-1.226,13.163l1.576,4.347-2.646-3.766C13.354,37.891,5.814,27,8.391,16.758c1.77-7.033,4.258-9.8,5.453-11.127.334-.372.367-.6.357-.635a.313.313,0,0,0-.177-.036A1.2,1.2,0,0,0,13.317,5.229Z" transform="translate(0.076 0.301)" fill-rule="evenodd" fill="url(#b)"/><path d="M27.089,54.568c1.627.181,6.439-.448,11.679-3.3A26.918,26.918,0,0,0,52.327,33.891C56.46,17.624,44.849,7.861,41.192,5.256l-.137-.1c-.457-.341-.848-.283-.911-.219a1.205,1.205,0,0,0,.368.618c1.207,1.328,3.717,4.092,5.5,11.127,2.6,10.242-5.008,21.136-5.333,21.6l-2.648,3.735,1.581-4.32c2.832-7.74-.676-12.786-1.163-13.114a.893.893,0,0,0-.084-.05,5.137,5.137,0,0,0,.026,1.893c.365,2.794-1.541,6.617-6.376,12.781-4.455,5.682-4.894,13.37-4.931,15.363m.616,1.269a4.534,4.534,0,0,1-1.431-.174l-.4-.143-.013-.427c-.011-.4-.22-9.756,5.2-16.667,4.483-5.716,6.427-9.477,6.118-11.837-.236-1.812-.07-2.794.54-3.188a1.2,1.2,0,0,1,1.394.134c.973.645,3.448,4.543,2.688,10.4,2.043-4,4.613-10.7,3.028-16.938-1.709-6.73-4.078-9.337-5.216-10.592-.9-.988-.787-1.833-.384-2.3a1.89,1.89,0,0,1,2.544.041l.115.084C45.71,6.956,57.841,17.159,53.511,34.2A28.132,28.132,0,0,1,39.343,52.372,26.886,26.886,0,0,1,27.7,55.836" transform="translate(1.552 0.217)" fill="#231f20" fill-rule="evenodd"/><path d="M13.973,4.887a1.2,1.2,0,0,0-.707.27l-.135.1C9.507,7.859-2,17.622,2.1,33.89A26.867,26.867,0,0,0,15.64,51.329c5.148,2.8,9.855,3.41,11.456,3.238-.037-1.994-.472-9.683-4.888-15.364-4.789-6.164-6.679-9.986-6.317-12.78a5.229,5.229,0,0,0,.028-1.89l-.073.045c-.836.57-3.8,5.806-1.152,13.117l1.576,4.347-2.646-3.768c-.322-.459-7.86-11.351-5.285-21.592,1.771-7.032,4.259-9.8,5.453-11.126.334-.372.367-.6.357-.635a.313.313,0,0,0-.177-.036m1.093,47.544A28.084,28.084,0,0,1,.912,34.2C-3.378,17.158,8.64,6.954,12.427,4.234l.114-.084A1.879,1.879,0,0,1,15.067,4.1c.4.46.519,1.307-.375,2.3-1.128,1.254-3.475,3.862-5.169,10.592-1.57,6.235.964,12.92,2.986,16.917-.745-5.845,1.7-9.733,2.666-10.377a1.192,1.192,0,0,1,1.385-.138c.609.39.776,1.374.541,3.189-.307,2.361,1.621,6.124,6.064,11.841C28.537,45.338,28.33,54.7,28.319,55.09l-.012.427-.394.144a4.466,4.466,0,0,1-1.414.173,26.408,26.408,0,0,1-11.433-3.4Z" transform="translate(0.001 0.218)" fill="#231f20" fill-rule="evenodd"/><path d="M40.2,5.008a.324.324,0,0,1,.207-.049,1.206,1.206,0,0,1,.7.268l.136.1C44.908,7.934,56.291,17.611,52.157,33.9A26.981,26.981,0,0,1,38.825,51.416C33.58,54.27,28.768,54.9,27.14,54.719c.037-2,.476-9.7,4.934-15.386,4.837-6.175,6.745-10,6.379-12.8a5.159,5.159,0,0,1-.028-1.9c.023.013.051.03.084.051.488.329,4,5.383,1.164,13.137L38.09,42.149l2.65-3.742c.325-.46,7.936-11.372,5.334-21.631-1.788-7.049-4.3-9.818-5.505-11.148a1.208,1.208,0,0,1-.367-.619Z" transform="translate(1.628 0.302)" fill="url(#b)"/></g></g><g transform="translate(-5 5)"><text transform="translate(-3554 -5335)" fill="#fff" font-size="20" font-family="Poppins-SemiBold, Poppins" font-weight="600" letter-spacing="-0.01em"><tspan x="0" y="0">Pradhan Mantri Fasal Bima Yojana</tspan></text><text transform="translate(-3554 -5311)" fill="#fff" font-size="14" font-family="Poppins-Light, Poppins" font-weight="300" letter-spacing="-0.01em"><tspan x="0" y="0">Ministry of Agriculture &amp; Farmers Welfare</tspan></text></g></g></svg>